<?xml version="1.0" encoding="UTF-8"?>
<svg width="851px" height="444px" viewBox="0 0 851 444" version="1.1" xmlns="http://www.w3.org/2000/svg" xmlns:xlink="http://www.w3.org/1999/xlink">
    <title>Group 2</title>
    <g id="Page-1" stroke="none" stroke-width="1" fill="none" fill-rule="evenodd">
        <g id="Group-2" transform="translate(2.000000, 2.300000)">
            <line x1="291" y1="416.7" x2="290" y2="22.7" id="Path" stroke="#404040" stroke-width="4"></line>
            <line x1="194.5" y1="513.2" x2="194.5" y2="316.2" id="Path" stroke="#404040" stroke-width="4" transform="translate(194.500000, 414.700000) rotate(90.000000) translate(-194.500000, -414.700000) "></line>
            <line x1="192.5" y1="123.2" x2="192.5" y2="-73.8" id="Path" stroke="#404040" stroke-width="4" transform="translate(192.500000, 24.700000) rotate(90.000000) translate(-192.500000, -24.700000) "></line>
            <line x1="192.5" y1="189.2" x2="192.5" y2="-7.8" id="Path" stroke="#404040" stroke-width="4" transform="translate(192.500000, 90.700000) rotate(90.000000) translate(-192.500000, -90.700000) "></line>
            <line x1="192.5" y1="255.2" x2="192.5" y2="58.2" id="Path" stroke="#404040" stroke-width="4" transform="translate(192.500000, 156.700000) rotate(90.000000) translate(-192.500000, -156.700000) "></line>
            <line x1="192.5" y1="383.2" x2="192.5" y2="186.2" id="Path" stroke="#404040" stroke-width="4" transform="translate(192.500000, 284.700000) rotate(90.000000) translate(-192.500000, -284.700000) "></line>
            <line x1="192.5" y1="448.2" x2="192.5" y2="251.2" id="Path" stroke="#404040" stroke-width="4" transform="translate(192.500000, 349.700000) rotate(90.000000) translate(-192.500000, -349.700000) "></line>
            <line x1="743" y1="219.7" x2="96" y2="219.7" id="Path" stroke="#404040" stroke-width="4"></line>
            <g id="Primary-Workflow" transform="translate(456.800000, 12.900000)">
                <ellipse id="Oval" stroke="#74B7FB" stroke-width="7" fill-opacity="0" fill="#D8D8D8" cx="196" cy="201" rx="192.5" ry="197.5"></ellipse>
                <text font-family="Helvetica-Bold, Helvetica" font-size="22" font-weight="bold" fill="#FFFFFF">
                    <tspan x="103" y="336">Primary Workflow</tspan>
                </text>
                <g id="Group" transform="translate(215.000000, 158.000000)">
                    <g id="Oval" transform="translate(55.000000, 32.500000)" fill="#4DA6FF" fill-rule="nonzero" stroke="#404040" stroke-width="4">
                        <circle cx="15.8" cy="15.8" r="15.8"></circle>
                    </g>
                    <text id="SONARCUBE" font-family="Helvetica-Bold, Helvetica" font-size="22" font-weight="bold" fill="#FFFFFF">
                        <tspan x="0" y="21">SONARCUBE</tspan>
                    </text>
                </g>
                <g id="Group" transform="translate(60.000000, 158.000000)">
                    <g id="Oval" transform="translate(29.000000, 32.500000)" fill="#4DA6FF" fill-rule="nonzero" stroke="#404040" stroke-width="4">
                        <circle cx="15.8" cy="15.8" r="15.8"></circle>
                    </g>
                    <text id="LINTERS" font-family="Helvetica-Bold, Helvetica" font-size="22" font-weight="bold" fill="#FFFFFF">
                        <tspan x="0" y="21">LINTERS</tspan>
                    </text>
                </g>
            </g>
            <g id="Branch" transform="translate(0.000000, 194.700000)" fill-rule="nonzero">
                <polygon id="Path" stroke="#404040" stroke-width="4" fill="#4CD3D6" stroke-linejoin="round" points="0 0 96.2 0 96.2 50 0 50"></polygon>
                <g id="Master" transform="translate(21.152500, 15.700000)" fill="#404040" font-family="Helvetica" font-size="15" font-weight="normal">
                    <text id="Release">
                        <tspan x="-3.55271368e-15" y="15">Release</tspan>
                    </text>
                </g>
            </g>
            <g id="Branch" transform="translate(0.000000, 259.700000)" fill-rule="nonzero">
                <polygon id="Path" stroke="#404040" stroke-width="4" fill="#B18BE8" stroke-linejoin="round" points="0 0 96.2 0 96.2 50 0 50"></polygon>
                <g id="Master" transform="translate(19.367500, 15.700000)" fill="#404040" font-family="Helvetica" font-size="15" font-weight="normal">
                    <text id="Develop">
                        <tspan x="-3.55271368e-15" y="15">Develop</tspan>
                    </text>
                </g>
            </g>
            <g id="Branch" transform="translate(0.000000, 324.700000)" fill-rule="nonzero">
                <polygon id="Path" stroke="#404040" stroke-width="4" fill="#0091FF" stroke-linejoin="round" points="0 0 96.2 0 96.2 50 0 50"></polygon>
                <g id="Master" transform="translate(33.580000, 15.700000)" fill="#404040" font-family="Helvetica" font-size="15" font-weight="normal">
                    <text id="Epic">
                        <tspan x="0" y="15">Epic</tspan>
                    </text>
                </g>
            </g>
            <g id="Branch" transform="translate(0.000000, 389.700000)" fill-rule="nonzero">
                <polygon id="Path" stroke="#404040" stroke-width="4" fill="#4ED1A1" stroke-linejoin="round" points="0 0 96.2 0 96.2 50 0 50"></polygon>
                <g id="Master" transform="translate(21.115000, 15.700000)" fill="#404040" font-family="Helvetica" font-size="15" font-weight="normal">
                    <text id="Feature">
                        <tspan x="3.55271368e-15" y="15">Feature</tspan>
                    </text>
                </g>
            </g>
            <g id="Branch" transform="translate(2.000000, 65.000000)" fill-rule="nonzero">
                <polygon id="Path" stroke="#404040" stroke-width="4" fill="#FC8363" stroke-linejoin="round" points="0 0 96.2 0 96.2 50 0 50"></polygon>
                <g id="Master" transform="translate(26.557500, 15.700000)" fill="#404040" font-family="Helvetica" font-size="15" font-weight="normal">
                    <text id="Hotfix">
                        <tspan x="-3.55271368e-15" y="15">Hotfix</tspan>
                    </text>
                </g>
            </g>
            <g id="Group" transform="translate(2.000000, 0.000000)" fill-rule="nonzero">
                <polygon id="Path" stroke="#404040" stroke-width="4" fill="#B3E3FF" stroke-linejoin="round" points="0 0 96.2 0 96.2 50 0 50"></polygon>
                <g id="Master" transform="translate(23.292500, 15.700000)" fill="#404040" font-family="Helvetica" font-size="15" font-weight="normal">
                    <text>
                        <tspan x="-3.55271368e-15" y="15">Master</tspan>
                    </text>
                </g>
            </g>
            <g id="Branch" transform="translate(0.000000, 130.000000)" fill-rule="nonzero">
                <polygon id="Path" stroke="#404040" stroke-width="4" fill="#F7B500" stroke-linejoin="round" points="0 0 100.2 0 100.2 50 0 50"></polygon>
                <g id="Master" transform="translate(27.435218, 15.700000)" fill="#404040" font-family="Helvetica" font-size="15" font-weight="normal">
                    <text id="Bugfix">
                        <tspan x="-3.70043566e-15" y="15">Bugfix</tspan>
                    </text>
                </g>
            </g>
            <g id="Group" transform="translate(244.800000, 167.900000)">
                <g id="Oval" transform="translate(29.000000, 31.500000)" fill="#4DA6FF" fill-rule="nonzero" stroke="#404040" stroke-width="4">
                    <circle cx="15.8" cy="15.8" r="15.8"></circle>
                </g>
                <text id="COMMIT" font-family="Helvetica-Bold, Helvetica" font-size="22" font-weight="bold" fill="#FFFFFF">
                    <tspan x="0" y="21">COMMIT</tspan>
                </text>
            </g>
        </g>
    </g>
</svg>